<svg width="96" height="96" viewBox="0 0 96 96" fill="none" xmlns="http://www.w3.org/2000/svg">
  <defs>
    <radialGradient id="bg" cx="0" cy="0" r="1" gradientUnits="userSpaceOnUse" gradientTransform="translate(48 27) rotate(90) scale(69)">
      <stop stop-color="#1B273A"/>
      <stop offset="1" stop-color="#0A1018"/>
    </radialGradient>
    <linearGradient id="ring" x1="15" y1="12" x2="79.5" y2="84" gradientUnits="userSpaceOnUse">
      <stop stop-color="#8BE3FF"/>
      <stop offset="1" stop-color="#4BA9FF"/>
    </linearGradient>
  </defs>

  <!-- Background circle -->
  <circle cx="48" cy="48" r="40.5" fill="url(#bg)"/>

  <!-- Top curve -->
  <path d="M26.25 30.75C29.6 34.35 33.1 37 36.6 38.7C40.1 40.35 44 41.25 48.3 41.25C52.6 41.25 56.5 40.35 60 38.7C63.5 37 66.9 34.35 70.3 30.75"
        stroke="#F7FBFF"
        stroke-width="6"
        stroke-linecap="round"/>

  <!-- Bottom curve -->
  <path d="M26.25 65.25C29.6 61.65 33.1 59 36.6 57.3C40.1 55.65 44 54.75 48.3 54.75C52.6 54.75 56.5 55.65 60 57.3C63.5 59 66.9 61.65 70.3 65.25"
        stroke="#F7FBFF"
        stroke-width="6"
        stroke-linecap="round"/>
</svg>