<svg width="128" height="128" viewBox="0 0 128 128" fill="none" xmlns="http://www.w3.org/2000/svg">
  <defs>
    <radialGradient id="bg" cx="0" cy="0" r="1" gradientUnits="userSpaceOnUse" gradientTransform="translate(64 36) rotate(90) scale(92)">
      <stop stop-color="#1B273A"/>
      <stop offset="1" stop-color="#0A1018"/>
    </radialGradient>
    <linearGradient id="ring" x1="20" y1="16" x2="106" y2="112" gradientUnits="userSpaceOnUse">
      <stop stop-color="#8BE3FF"/>
      <stop offset="1" stop-color="#4BA9FF"/>
    </linearGradient>
  </defs>
  <circle cx="64" cy="64" r="54" fill="url(#bg)"/>
  <path d="M35 41C39.5 45.8 44.1 49.3 48.8 51.6C53.5 53.8 58.7 55 64.4 55C70.1 55 75.3 53.8 80 51.6C84.7 49.3 89.2 45.8 93.7 41" stroke="#F7FBFF" stroke-width="8" stroke-linecap="round"/>
  <path d="M35 87C39.5 82.2 44.1 78.7 48.8 76.4C53.5 74.2 58.7 73 64.4 73C70.1 73 75.3 74.2 80 76.4C84.7 78.7 89.2 82.2 93.7 87" stroke="#F7FBFF" stroke-width="8" stroke-linecap="round"/>
</svg>
